<svg width="23" height="23" viewBox="0 0 23 23" fill="none" xmlns="http://www.w3.org/2000/svg">
<g id="Group 40">
<path id="Vector" d="M0.442654 19.1058C0.126203 18.2546 0.000593011 17.275 5.39128e-05 16.3656C-0.000305486 13.0724 0.001132 9.75247 0.00436659 6.40575C0.00508539 5.65388 0.137883 4.86303 0.40276 4.03317C0.997386 2.17005 2.42061 0.859502 4.31877 0.312318C5.15761 0.0708017 5.98135 0.00125788 6.86925 0.000718785C10.2843 -0.000718811 13.5055 3.6551e-08 16.5331 0.00287523C17.6097 0.00395342 18.7715 0.240618 19.7742 0.736588C22.1182 1.89565 23.0012 4.23156 23.0028 6.72004C23.0043 10.1077 23.0023 13.4038 22.9969 16.6082C22.9958 17.1067 22.924 17.6785 22.7813 18.3236C22.7004 18.6884 22.5917 19.0347 22.4551 19.3624C21.3952 21.9075 19.0523 22.9976 16.3541 22.9987C13.1091 23.0005 9.86142 23.0005 6.61102 22.9987C5.47621 22.9981 4.2902 22.7873 3.27615 22.2903C1.93056 21.6311 0.986065 20.5697 0.442654 19.1058ZM18.3445 2.00563C17.7249 1.82197 17.1646 1.72979 16.6636 1.72907C13.4146 1.7244 10.0677 1.72098 6.62288 1.71882C6.00651 1.71847 5.39158 1.80274 4.77808 1.97166C2.58665 2.57599 1.72679 4.47901 1.72732 6.58958C1.72876 9.7548 1.72768 12.9639 1.72409 16.2168C1.72355 17.0438 1.83568 17.7867 2.11224 18.5495C2.11381 18.5539 2.11638 18.5579 2.11976 18.5612C2.12313 18.5645 2.12722 18.567 2.1317 18.5685C2.13618 18.5699 2.14094 18.5703 2.1456 18.5696C2.15027 18.569 2.15472 18.5672 2.1586 18.5646C3.4891 17.6751 4.81384 16.785 6.13284 15.8944C6.466 15.6694 6.72351 15.5214 6.90536 15.4502C7.60889 15.1742 8.43425 15.2254 9.08871 15.5958C9.44883 15.8001 9.74318 16.116 10.0839 16.3462C11.0235 16.9802 12.3007 16.868 13.1589 16.1316C14.8032 14.7213 16.3646 13.3813 17.8431 12.1116C18.8205 11.2716 20.2809 11.2938 21.2368 12.1692C21.2626 12.193 21.2756 12.1874 21.2756 12.1525C21.2784 10.2743 21.2775 8.38639 21.2729 6.48877C21.2714 5.93098 21.1952 5.37607 21.0443 4.82403C20.6605 3.4213 19.7095 2.41049 18.3445 2.00563Z" fill="white"/>
<path id="Vector_2" d="M8.0513 9.63483C9.56201 9.63483 10.7867 8.41016 10.7867 6.89945C10.7867 5.38874 9.56201 4.16406 8.0513 4.16406C6.54059 4.16406 5.31592 5.38874 5.31592 6.89945C5.31592 8.41016 6.54059 9.63483 8.0513 9.63483Z" fill="white"/>
</g>
</svg>
