<svg width="17" height="17" viewBox="0 0 17 17" fill="none" xmlns="http://www.w3.org/2000/svg">
<path d="M8.24732 0H8.74836C10.0169 0.0431641 11.1926 0.337012 12.2752 0.881543C13.2633 1.37826 14.1107 2.02229 14.8172 2.81363C16.187 4.34717 16.9146 6.16095 17 8.25496V8.74836C16.9582 9.95053 16.692 11.0682 16.2015 12.1012C15.7032 13.1509 15.0387 14.0495 14.2079 14.797C12.6713 16.18 10.8504 16.9143 8.74537 17H8.25164C6.86663 16.9509 5.59351 16.6058 4.43229 15.9647C3.45744 15.4264 2.62836 14.7414 1.94504 13.9098C0.726042 12.4258 0.0776953 10.7069 0 8.75301V8.23404C0.0896484 6.14756 0.81735 4.34053 2.18311 2.81297C2.91136 1.99816 3.78648 1.34085 4.80848 0.841035C5.86611 0.323952 7.01239 0.0436068 8.24732 0ZM8.39707 11.1984C9.07486 11.6962 9.76161 12.2029 10.4573 12.7185C10.636 12.8506 10.9238 12.9426 11.0988 12.7653C11.1856 12.6774 11.2443 12.5613 11.2751 12.417C11.7475 10.1935 12.2166 7.98292 12.6826 5.78531C12.7019 5.69411 12.7052 5.59738 12.6926 5.49512C12.6527 5.17072 12.3721 5.04555 12.0826 5.15711C8.95046 6.36526 6.20312 7.42488 3.84061 8.33598C3.73745 8.3756 3.64471 8.43227 3.56236 8.50598C3.31965 8.72312 3.55439 8.91438 3.76025 8.97879C4.39399 9.17757 5.099 9.39781 5.87529 9.63953C5.88702 9.64329 5.89798 9.64186 5.90816 9.63521C7.53091 8.61322 9.14647 7.5961 10.7548 6.58385C10.8398 6.53039 10.9218 6.49619 11.0251 6.50648C11.0342 6.50739 11.0429 6.51025 11.0508 6.51487C11.0587 6.51949 11.0655 6.52577 11.0707 6.53327C11.0759 6.54077 11.0795 6.54932 11.0811 6.55833C11.0828 6.56735 11.0825 6.57662 11.0802 6.58551C11.0738 6.6103 11.061 6.63155 11.0417 6.64926C9.72708 7.83815 8.41057 9.0276 7.09219 10.2176C7.08665 10.2227 7.08367 10.229 7.08322 10.2365L6.93447 12.3668C6.93381 12.3772 6.93868 12.3824 6.94908 12.3824C7.083 12.3827 7.19578 12.3386 7.28742 12.2503C7.65111 11.8999 8.01468 11.5497 8.37814 11.1997C8.38069 11.1973 8.38398 11.1959 8.38744 11.1956C8.3909 11.1954 8.39431 11.1964 8.39707 11.1984Z" fill="#0085BA"/>
</svg>
