<svg width="30" height="30" viewBox="0 0 30 30" fill="none" xmlns="http://www.w3.org/2000/svg">
<path d="M14.7293 0H15.2924C17.7756 0.0617187 20.0645 0.668945 22.159 1.82168C23.8906 2.7748 25.3609 3.98887 26.5699 5.46387C28.7555 8.13027 29.8988 11.2186 30 14.7287V15.2777C29.9477 17.4914 29.4576 19.5555 28.5299 21.4699C27.6549 23.2762 26.4986 24.8246 25.0611 26.1152C22.3096 28.5867 19.0516 29.8816 15.2871 30H14.7949C14.6062 29.9871 14.4174 29.9766 14.2283 29.9684C13.9799 29.9574 13.7912 29.9461 13.6623 29.9344C11.5318 29.7406 9.53437 29.1217 7.66992 28.0775C7.51602 27.9912 7.22168 27.8104 6.78691 27.535C6.76816 27.5232 6.74824 27.5207 6.72715 27.5273L1.02539 29.3514C1.00078 29.3592 0.992578 29.3508 1.00078 29.3262L2.84883 23.8178C2.85586 23.7979 2.85332 23.7793 2.84121 23.7621C2.52559 23.3008 2.31816 22.9889 2.21895 22.8264C1.00918 20.8529 0.293164 18.707 0.0708984 16.3887C0.0363281 16.0236 0.028125 15.5754 0 15.1688V14.7205C0.115625 10.9838 1.3918 7.74375 3.82852 5.00039C5.12266 3.54258 6.6793 2.37051 8.49844 1.48418C10.425 0.545508 12.502 0.0507812 14.7293 0ZM7.8416 7.3875C6.96738 8.21602 6.45879 9.20449 6.32988 10.3816C6.27129 10.9164 6.27988 11.3979 6.35566 11.826C6.40801 12.124 6.47207 12.3971 6.54785 12.6451C6.79824 13.4635 7.1832 14.2627 7.70273 15.0428C8.46094 16.1807 9.28418 17.2635 10.217 18.2771C11.6895 19.8768 13.4824 21.2936 15.4564 22.1314C16.5234 22.5844 17.5131 22.9459 18.542 23.2031C19.1613 23.3584 19.8381 23.4563 20.4592 23.3572C21.3979 23.2076 22.2338 22.824 22.967 22.2064C23.3334 21.8979 23.5861 21.5537 23.7252 21.174C23.8885 20.7287 23.9914 20.2611 24.034 19.7713C24.05 19.5885 24.0449 19.4051 24.0188 19.2211C23.9936 19.0418 23.84 18.9334 23.69 18.8584C22.6881 18.3553 21.7053 17.8764 20.7416 17.4217C20.5482 17.3303 20.3447 17.2451 20.1311 17.1662C19.858 17.065 19.6088 17.0809 19.3834 17.2137C19.2316 17.3027 19.0699 17.5084 18.9697 17.6525C18.5432 18.2674 18.1904 18.7293 17.9115 19.0383C17.785 19.1781 17.6104 19.2625 17.3877 19.2914C17.0455 19.3359 16.64 19.1314 16.3248 18.9908C14.8342 18.3256 13.5383 17.3697 12.4371 16.1232C11.8504 15.4584 11.3361 14.748 10.8943 13.9922C10.7393 13.7266 10.7631 13.474 10.9658 13.2346C11.2104 12.9459 11.4709 12.6496 11.7475 12.3457C12.0615 12.0006 12.4225 11.5125 12.242 11.0754C11.7607 9.91016 11.2859 8.77227 10.8176 7.66172C10.6611 7.29023 10.5229 6.94453 10.0611 6.89648C9.30117 6.81738 8.42227 6.83672 7.8416 7.3875Z" fill="#0085BA"/>
</svg>
