<svg width="218" height="137" viewBox="0 0 218 137" fill="none" xmlns="http://www.w3.org/2000/svg">
<g id="Group 24" style="mix-blend-mode:hard-light">
<path id="Vector" d="M23.772 56.1916C23.0482 56.8183 22.317 57.4142 21.5784 57.9791C15.6288 62.5311 9.77177 66.2563 4.00747 69.1546C0.675129 70.8274 -1.63324 66.1401 1.44311 64.5246C13.7103 58.0895 24.1266 49.9888 32.6921 40.2228C33.1423 39.7079 33.9368 38.6559 35.0755 37.067C46.3746 21.3233 62.7494 9.16358 81.5386 4.00838C82.7744 3.66999 84.9533 3.12122 88.0752 2.36206C102.896 -1.23069 118.711 -0.617185 133.444 3.4699C147.665 7.42017 160.314 16.8831 168.113 29.4534C170.2 32.8137 170.298 35.9783 168.409 38.9472C166.692 41.644 163.519 43.127 160.38 42.5797C157.211 42.0236 154.091 42.4252 151.174 43.8509C136.864 50.851 126.969 65.2132 122.877 80.5817C118.755 96.0694 125.133 112.93 139.795 120.61C143.626 122.618 140.934 127.385 137.473 125.465C129.04 120.78 123.076 114.317 119.58 106.075C115.696 96.908 115.427 86.5093 118.331 77.0066C123.085 61.4306 132.79 47.8673 146.932 39.9977C147.132 39.8859 147.157 39.7446 147.007 39.574C144.994 37.2759 142.549 36.2784 139.671 36.5815C134.869 37.0891 131.555 41.0482 126.757 41.5513C126.095 41.6219 125.393 41.5513 124.859 42.0324C119.165 47.1655 114.818 53.7022 111.9 60.8171C109.155 67.5054 107.554 74.2877 107.098 81.1643C107.016 82.4207 106.741 83.3035 106.273 83.8125C104.503 85.7413 101.453 84.3333 101.661 81.6807C102.874 66.193 108.158 51.3718 118.777 40.4611C118.909 40.3228 118.892 40.2051 118.724 40.108C117.016 39.1414 115.815 38.0645 114.655 36.6742C114.534 36.5271 114.403 36.5182 114.262 36.6477C111.344 39.3445 108.387 41.3218 104.282 41.772C104.217 41.7791 104.153 41.7996 104.095 41.8322C104.038 41.8648 103.987 41.9089 103.947 41.9618C99.0036 48.2822 95.8213 56.3328 93.8395 64.1186C92.948 67.6142 87.7089 66.4093 88.7417 62.512C90.7426 54.9734 93.4717 48.3543 96.9291 42.6547C97.0292 42.49 96.988 42.4355 96.8055 42.4914C93.9146 43.3963 91.615 45.3339 89.4435 47.4524C86.6334 50.1948 84.459 53.1152 82.92 56.2136C80.3866 61.307 78.8727 67.3759 77.7781 73.0696C77.774 73.0927 77.7752 73.1165 77.7817 73.1391C77.7882 73.1617 77.7998 73.1825 77.8155 73.2C77.8313 73.2174 77.8508 73.231 77.8726 73.2398C77.8944 73.2486 77.9179 73.2522 77.9414 73.2505C80.7426 73.0622 83.6071 73.1166 86.5349 73.4138C88.418 73.6051 89.9364 74.0435 91.0898 74.7291C93.8351 76.3622 95.6889 79.4341 95.3799 82.6561C95.0489 86.1915 92.2021 88.9412 89.3111 90.7817C89.1434 90.8877 89.0772 91.0392 89.1125 91.2364C90.0747 96.7711 88.2165 101.083 83.538 104.173C83.129 104.441 82.6994 104.679 82.2492 104.888C82.1832 104.919 82.1304 104.972 82.1004 105.039C82.0704 105.105 82.0653 105.18 82.0859 105.25C82.7979 107.542 82.9318 109.808 82.4875 112.047C81.7945 115.521 76.604 114.483 77.297 110.957C77.706 108.871 77.3279 106.914 76.1627 105.087C75.2137 103.595 75.9332 101.728 77.5662 101.145C79.1154 100.593 80.5366 99.896 81.7901 98.8412C84.1559 96.855 84.6149 93.6153 83.4409 90.8479C82.8759 89.5106 83.4364 88.0188 84.7076 87.3655C86.7555 86.3107 91.7033 83.2034 89.5009 80.3345C88.8565 79.493 88.0443 79.003 87.0645 78.8648C71.8593 76.7241 57.9385 83.2211 49.6849 95.8796C47.5751 99.1148 43.1217 96.0782 45.2844 92.8562C51.8755 83.0225 60.75 76.7741 71.9079 74.1112C72.0903 74.0671 72.1977 73.9523 72.2301 73.7669C73.0245 69.1296 74.1618 64.5349 75.6418 59.9829C78.3754 51.5645 83.2849 44.8336 90.3704 39.7903C94.1176 37.1244 98.3901 36.4094 102.998 36.5065C105.152 36.555 107.257 35.5972 108.93 34.2025C110.363 33.0049 111.862 31.7588 113.428 30.4641C115.043 29.1223 116.985 29.8462 117.802 31.647C119.315 34.997 122.921 36.9876 126.558 36.2372C127.674 36.0077 128.939 35.4531 130.354 34.5733C133.276 32.7592 137.05 31.2144 140.585 31.2321C145.437 31.2586 149.258 33.3698 152.047 37.5658C152.156 37.7276 152.303 37.782 152.489 37.7291C155.208 36.9287 158.096 36.7904 161.153 37.3142C163.73 37.7555 165.156 34.9793 163.907 32.8519C155.998 19.3989 142.514 10.6333 127.194 7.37161C114.65 4.70132 101.043 4.51595 88.7064 7.70264C86.4554 8.28525 84.1073 8.75752 81.8078 9.43281C59.7569 15.921 42.6053 32.0883 31.6946 52.4134C30.9678 53.767 29.6937 56.5079 27.8724 60.6362C23.3307 70.9289 17.4295 80.7935 9.77177 89.0692C7.85916 91.1319 6.03042 92.7782 4.28554 94.0082C1.37691 96.0561 -1.72151 92.0926 1.28863 89.6474C4.04867 87.4082 6.49386 84.963 8.62421 82.3119C14.9623 74.4378 20.0645 65.7693 23.9309 56.3063C24.0369 56.0474 23.9839 56.0091 23.772 56.1916Z" fill="#6D6D6D"/>
<path id="Vector_2" d="M163.4 60.1911C164.872 60.1911 166.066 58.9976 166.066 57.5253C166.066 56.0529 164.872 54.8594 163.4 54.8594C161.927 54.8594 160.734 56.0529 160.734 57.5253C160.734 58.9976 161.927 60.1911 163.4 60.1911Z" fill="#6D6D6D"/>
<path id="Vector_3" d="M151.157 91.8917C149.98 92.377 148.716 92.619 147.437 92.6038C146.158 92.5887 144.89 92.3167 143.704 91.8035C142.519 91.2903 141.44 90.5458 140.528 89.6126C139.616 88.6794 138.89 87.5757 138.391 86.3646C137.383 83.9187 137.36 81.1837 138.329 78.7612C139.297 76.3387 141.177 74.4272 143.555 73.4471C144.732 72.9619 145.996 72.7199 147.275 72.735C148.554 72.7502 149.822 73.0221 151.007 73.5354C152.193 74.0486 153.272 74.7931 154.184 75.7263C155.096 76.6595 155.822 77.7631 156.321 78.9742C157.329 81.4201 157.352 84.1552 156.383 86.5777C155.415 89.0002 153.535 90.9117 151.157 91.8917ZM149.214 86.9526C149.741 86.7238 150.214 86.3866 150.606 85.9604C150.999 85.5342 151.304 85.0273 151.504 84.4686C151.703 83.9099 151.793 83.3104 151.769 82.7042C151.745 82.0981 151.607 81.4972 151.363 80.9359C151.119 80.3746 150.774 79.8638 150.347 79.4328C149.92 79.0018 149.42 78.6589 148.875 78.4238C148.331 78.1887 147.752 78.0659 147.172 78.0625C146.593 78.0591 146.024 78.1751 145.497 78.4039C144.971 78.6328 144.498 78.9699 144.105 79.3961C143.713 79.8223 143.408 80.3292 143.208 80.8879C143.009 81.4466 142.918 82.0461 142.943 82.6523C142.967 83.2584 143.105 83.8593 143.349 84.4206C143.593 84.9819 143.938 85.4927 144.365 85.9237C144.792 86.3547 145.292 86.6976 145.837 86.9327C146.381 87.1678 146.96 87.2906 147.54 87.294C148.119 87.2974 148.688 87.1814 149.214 86.9526Z" fill="#6D6D6D"/>
<path id="Vector_4" d="M198.25 80.9136C198.25 82.8545 197.479 84.7158 196.107 86.0882C194.734 87.4605 192.873 88.2315 190.932 88.2315C188.991 88.2315 187.13 87.4605 185.758 86.0882C184.385 84.7158 183.614 82.8545 183.614 80.9136C183.614 78.9728 184.385 77.1114 185.758 75.7391C187.13 74.3667 188.991 73.5957 190.932 73.5957C192.873 73.5957 194.734 74.3667 196.107 75.7391C197.479 77.1114 198.25 78.9728 198.25 80.9136ZM192.932 80.9136C192.932 80.6511 192.88 80.3911 192.779 80.1485C192.679 79.9059 192.532 79.6855 192.346 79.4998C192.16 79.3142 191.94 79.1669 191.697 79.0664C191.455 78.9659 191.195 78.9142 190.932 78.9142C190.402 78.9142 189.893 79.1249 189.518 79.4998C189.143 79.8748 188.933 80.3833 188.933 80.9136C188.933 81.4439 189.143 81.9525 189.518 82.3274C189.893 82.7024 190.402 82.913 190.932 82.913C191.195 82.913 191.455 82.8613 191.697 82.7608C191.94 82.6603 192.16 82.5131 192.346 82.3274C192.532 82.1417 192.679 81.9213 192.779 81.6788C192.88 81.4362 192.932 81.1762 192.932 80.9136Z" fill="#6D6D6D"/>
<path id="Vector_5" d="M104.619 93.2506L104.244 93.3093C102.917 93.5171 102.01 94.7613 102.218 96.0882L102.465 97.6667C102.673 98.9937 103.917 99.901 105.244 99.6932L105.619 99.6344C106.946 99.4266 107.853 98.1825 107.645 96.8555L107.398 95.277C107.19 93.95 105.946 93.0428 104.619 93.2506Z" fill="#6D6D6D"/>
<path id="Vector_6" d="M199.023 102.937C200.485 102.937 201.671 101.751 201.671 100.289C201.671 98.8263 200.485 97.6406 199.023 97.6406C197.56 97.6406 196.375 98.8263 196.375 100.289C196.375 101.751 197.56 102.937 199.023 102.937Z" fill="#6D6D6D"/>
<path id="Vector_7" d="M42.0711 106.476C43.5336 106.476 44.7193 105.29 44.7193 103.828C44.7193 102.365 43.5336 101.18 42.0711 101.18C40.6085 101.18 39.4229 102.365 39.4229 103.828C39.4229 105.29 40.6085 106.476 42.0711 106.476Z" fill="#6D6D6D"/>
<path id="Vector_8" d="M100.932 135.409C94.3707 128.4 89.8202 120.188 87.2808 110.772C86.2303 106.879 91.4473 105.559 92.4801 109.584C92.7714 110.717 93.1025 111.809 93.4732 112.859C97.0881 123.165 103.351 132.606 112.845 137.744C113.001 137.826 113.166 137.851 113.339 137.819C117.462 137.013 121.48 136.009 125.393 134.809C125.409 134.804 125.423 134.794 125.434 134.781C125.444 134.768 125.451 134.753 125.453 134.737C125.455 134.721 125.452 134.705 125.444 134.691C125.437 134.677 125.425 134.666 125.411 134.659C116.213 129.636 109.954 120.548 105.999 110.644C105.002 108.141 107.902 105.93 110.011 107.492C110.438 107.807 110.835 108.397 111.203 109.262C115.564 119.515 121.849 128.506 132.751 132.059C132.901 132.109 133.048 132.106 133.192 132.05C143.641 128.001 152.871 122.35 160.884 115.097C162.914 113.261 164.476 112.075 165.571 111.54C169.817 109.474 173.75 110.216 177.846 112.475C188.421 118.306 199.142 123.593 209.187 127.707C211.276 128.563 213.235 128.924 215.062 128.788C216.39 128.691 217.648 129.442 217.918 130.766C218.452 133.383 216.13 134.336 213.954 134.182C211.544 134.017 209.164 133.452 206.813 132.487C195.54 127.848 185.221 122.525 174.063 116.523C172.292 115.572 170.488 115.408 168.652 116.028C167.704 116.352 166.47 117.219 164.949 118.628C151.191 131.37 133.276 139.337 114.699 142.956C114.46 143.003 114.45 143.083 114.668 143.195C122.663 147.232 131.001 150.866 139.685 154.097C139.861 154.161 139.977 154.105 140.033 153.929C143.057 144.748 152.506 139.898 161.766 142.511C167.057 144.002 172.353 145.55 177.656 147.154C177.959 147.245 177.987 147.191 177.74 146.991C176.086 145.646 174.372 144.316 172.598 143.001C170.662 141.562 169.396 140.305 168.802 139.231C165.589 133.436 169.817 126.202 176.676 126.679C177.812 126.758 179.121 127.202 180.604 128.012C185.421 130.645 191.516 133.189 198.89 135.643C205.028 137.688 210.579 139.364 215.543 140.67C216.373 140.888 216.989 141.239 217.392 141.725C218.659 143.252 217.847 145.653 215.865 145.984C215.356 146.07 214.763 146.018 214.086 145.83C205.28 143.376 197.623 140.947 191.118 138.543C186.23 136.733 181.699 134.688 177.523 132.408C175.828 131.476 173.961 132.16 173.242 133.913C172.426 135.917 173.67 137.144 175.171 138.269C180.494 142.25 185.736 146.471 190.897 150.932C191.515 151.465 191.936 152 192.159 152.539C192.976 154.529 190.976 156.546 188.902 155.946C179.783 153.315 170.589 150.623 161.321 147.869C159.449 147.31 157.859 147.052 156.549 147.096C151.178 147.273 146.579 150.601 145.052 155.774C145.005 155.927 145.058 156.03 145.211 156.083C164.971 162.889 185.437 167.611 206.151 170.524C209.792 171.036 209.276 176.377 205.153 175.781C170.479 170.785 136.149 161.154 105.342 144.254C94.9842 138.572 85.6727 132.231 77.4073 125.231C75.5095 123.624 72.9274 123.104 70.6411 124.128C69.8673 124.475 68.9066 125.184 67.759 126.255C51.3724 141.544 31.9727 151.879 9.55994 157.261C8.02397 157.629 6.18934 157.998 4.05605 158.369C3.00559 158.554 2.18464 158.521 1.59321 158.268C-0.834329 157.23 -0.335581 153.695 2.34354 153.24C9.37309 152.049 16.5248 150.064 23.7985 147.286C39.7055 141.216 53.4218 132.659 64.9475 121.616C69.5774 117.18 76.2863 117.229 81.1149 121.351C87.2999 126.627 93.8763 131.35 100.844 135.519C101.135 135.693 101.165 135.656 100.932 135.409Z" fill="#6D6D6D"/>
</g>
</svg>
