<svg width="188" height="155" viewBox="0 0 188 155" fill="none" xmlns="http://www.w3.org/2000/svg">
<g id="Group 28" style="mix-blend-mode:hard-light">
<path id="Vector" d="M194.228 56.1916C194.952 56.8183 195.683 57.4142 196.422 57.9791C202.371 62.5311 208.228 66.2563 213.993 69.1546C217.325 70.8274 219.633 66.1401 216.557 64.5246C204.29 58.0895 193.873 49.9888 185.308 40.2228C184.858 39.7079 184.063 38.6559 182.924 37.067C171.625 21.3233 155.251 9.16358 136.461 4.00838C135.226 3.66999 133.047 3.12122 129.925 2.36206C115.104 -1.23069 99.2893 -0.617185 84.5563 3.4699C70.3354 7.42017 57.6857 16.8831 49.8867 29.4534C47.8005 32.8137 47.7019 35.9783 49.591 38.9472C51.3079 41.644 54.4814 43.127 57.6195 42.5797C60.7885 42.0236 63.909 42.4252 66.8265 43.8509C81.1357 50.851 91.0312 65.2132 95.1227 80.5817C99.2451 96.0694 92.8673 112.93 78.205 120.61C74.3739 122.618 77.0663 127.385 80.5266 125.465C88.9597 120.78 94.9241 114.317 98.4197 106.075C102.304 96.908 102.573 86.5093 99.6688 77.0066C94.9153 61.4306 85.2095 47.8673 71.068 39.9977C70.868 39.8859 70.8429 39.7446 70.993 39.574C73.0057 37.2759 75.4509 36.2784 78.3286 36.5815C83.1307 37.0891 86.4454 41.0482 91.2431 41.5513C91.9051 41.6219 92.6069 41.5513 93.141 42.0324C98.8346 47.1655 103.182 53.7022 106.1 60.8171C108.845 67.5054 110.446 74.2877 110.902 81.1643C110.984 82.4207 111.259 83.3035 111.727 83.8125C113.497 85.7413 116.547 84.3333 116.339 81.6807C115.126 66.193 109.842 51.3718 99.223 40.4611C99.0906 40.3228 99.1083 40.2051 99.276 40.108C100.984 39.1414 102.185 38.0645 103.345 36.6742C103.466 36.5271 103.597 36.5182 103.738 36.6477C106.656 39.3445 109.613 41.3218 113.718 41.772C113.783 41.7791 113.847 41.7996 113.905 41.8322C113.962 41.8648 114.013 41.9089 114.053 41.9618C118.996 48.2822 122.179 56.3328 124.16 64.1186C125.052 67.6142 130.291 66.4093 129.258 62.512C127.257 54.9734 124.528 48.3543 121.071 42.6547C120.971 42.49 121.012 42.4355 121.194 42.4914C124.085 43.3963 126.385 45.3339 128.557 47.4524C131.367 50.1948 133.541 53.1152 135.08 56.2136C137.613 61.307 139.127 67.3759 140.222 73.0696C140.226 73.0927 140.225 73.1165 140.218 73.1391C140.212 73.1617 140.2 73.1825 140.184 73.2C140.169 73.2174 140.149 73.231 140.127 73.2398C140.106 73.2486 140.082 73.2522 140.059 73.2505C137.257 73.0622 134.393 73.1166 131.465 73.4138C129.582 73.6051 128.064 74.0435 126.91 74.7291C124.165 76.3622 122.311 79.4341 122.62 82.6561C122.951 86.1915 125.798 88.9412 128.689 90.7817C128.857 90.8877 128.923 91.0392 128.888 91.2364C127.925 96.7711 129.784 101.083 134.462 104.173C134.871 104.441 135.301 104.679 135.751 104.888C135.817 104.919 135.87 104.972 135.9 105.039C135.93 105.105 135.935 105.18 135.914 105.25C135.202 107.542 135.068 109.808 135.512 112.047C136.205 115.521 141.396 114.483 140.703 110.957C140.294 108.871 140.672 106.914 141.837 105.087C142.786 103.595 142.067 101.728 140.434 101.145C138.885 100.593 137.463 99.896 136.21 98.8412C133.844 96.855 133.385 93.6153 134.559 90.8479C135.124 89.5106 134.564 88.0188 133.292 87.3655C131.244 86.3107 126.297 83.2034 128.499 80.3345C129.144 79.493 129.956 79.003 130.935 78.8648C146.141 76.7241 160.062 83.2211 168.315 95.8796C170.425 99.1148 174.878 96.0782 172.716 92.8562C166.124 83.0225 157.25 76.7741 146.092 74.1112C145.91 74.0671 145.802 73.9523 145.77 73.7669C144.975 69.1296 143.838 64.5349 142.358 59.9829C139.625 51.5645 134.715 44.8336 127.63 39.7903C123.882 37.1244 119.61 36.4094 115.002 36.5065C112.848 36.555 110.743 35.5972 109.07 34.2025C107.637 33.0049 106.138 31.7588 104.572 30.4641C102.957 29.1223 101.015 29.8462 100.198 31.647C98.6846 34.997 95.0786 36.9876 91.4417 36.2372C90.3265 36.0077 89.0612 35.4531 87.6459 34.5733C84.724 32.7592 80.9503 31.2144 77.4149 31.2321C72.5628 31.2586 68.742 33.3698 65.9526 37.5658C65.8437 37.7276 65.6966 37.782 65.5112 37.7291C62.7923 36.9287 59.9043 36.7904 56.8471 37.3142C54.2695 37.7555 52.8439 34.9793 54.0929 32.8519C62.0023 19.3989 75.4862 10.6333 90.8061 7.37161C103.35 4.70132 116.957 4.51595 129.294 7.70264C131.545 8.28525 133.893 8.75752 136.192 9.43281C158.243 15.921 175.395 32.0883 186.305 52.4134C187.032 53.767 188.306 56.5079 190.128 60.6362C194.669 70.9289 200.57 80.7935 208.228 89.0692C210.141 91.1319 211.97 92.7782 213.714 94.0082C216.623 96.0561 219.722 92.0926 216.711 89.6474C213.951 87.4082 211.506 84.963 209.376 82.3119C203.038 74.4378 197.935 65.7693 194.069 56.3063C193.963 56.0474 194.016 56.0091 194.228 56.1916Z" fill="#6D6D6D"/>
<path id="Vector_2" d="M54.6002 60.1911C53.1279 60.1911 51.9344 58.9976 51.9344 57.5253C51.9344 56.0529 53.1279 54.8594 54.6002 54.8594C56.0726 54.8594 57.2661 56.0529 57.2661 57.5253C57.2661 58.9976 56.0726 60.1911 54.6002 60.1911Z" fill="#6D6D6D"/>
<path id="Vector_3" d="M66.8429 91.8917C68.0202 92.377 69.2843 92.619 70.5631 92.6038C71.8418 92.5887 73.1101 92.3167 74.2956 91.8035C75.4811 91.2903 76.5605 90.5458 77.4722 89.6126C78.3839 88.6794 79.1101 87.5757 79.6093 86.3646C80.6174 83.9187 80.6397 81.1837 79.6713 78.7612C78.7028 76.3387 76.8229 74.4272 74.4452 73.4471C73.2679 72.9619 72.0038 72.7199 70.725 72.735C69.4463 72.7502 68.178 73.0221 66.9925 73.5354C65.807 74.0486 64.7276 74.7931 63.8159 75.7263C62.9042 76.6595 62.178 77.7631 61.6788 78.9742C60.6707 81.4201 60.6484 84.1552 61.6169 86.5777C62.5853 89.0002 64.4652 90.9117 66.8429 91.8917ZM68.7855 86.9526C68.2593 86.7238 67.7863 86.3866 67.3935 85.9604C67.0008 85.5342 66.6959 85.0273 66.4964 84.4686C66.2969 83.9099 66.2066 83.3104 66.2307 82.7042C66.2548 82.0981 66.3928 81.4972 66.6369 80.9359C66.881 80.3746 67.2263 79.8638 67.6531 79.4328C68.08 79.0018 68.5801 78.6589 69.1247 78.4238C69.6694 78.1887 70.2481 78.0659 70.8276 78.0625C71.4072 78.0591 71.9764 78.1751 72.5026 78.4039C73.0288 78.6328 73.5018 78.9699 73.8946 79.3961C74.2874 79.8223 74.5922 80.3292 74.7917 80.8879C74.9912 81.4466 75.0815 82.0461 75.0574 82.6523C75.0333 83.2584 74.8953 83.8593 74.6512 84.4206C74.4072 84.9819 74.0618 85.4927 73.635 85.9237C73.2081 86.3547 72.7081 86.6976 72.1634 86.9327C71.6187 87.1678 71.04 87.2906 70.4605 87.294C69.8809 87.2974 69.3118 87.1814 68.7855 86.9526Z" fill="#6D6D6D"/>
<path id="Vector_4" d="M19.7499 80.9136C19.7499 82.8545 20.5209 84.7158 21.8933 86.0882C23.2657 87.4605 25.127 88.2315 27.0678 88.2315C29.0087 88.2315 30.87 87.4605 32.2424 86.0882C33.6147 84.7158 34.3857 82.8545 34.3857 80.9136C34.3857 78.9728 33.6147 77.1114 32.2424 75.7391C30.87 74.3667 29.0087 73.5957 27.0678 73.5957C25.127 73.5957 23.2657 74.3667 21.8933 75.7391C20.5209 77.1114 19.7499 78.9728 19.7499 80.9136ZM25.0684 80.9136C25.0684 80.6511 25.1201 80.3911 25.2206 80.1485C25.3211 79.9059 25.4684 79.6855 25.654 79.4998C25.8397 79.3142 26.0601 79.1669 26.3027 79.0664C26.5453 78.9659 26.8053 78.9142 27.0678 78.9142C27.5981 78.9142 28.1067 79.1249 28.4816 79.4998C28.8566 79.8748 29.0672 80.3833 29.0672 80.9136C29.0672 81.4439 28.8566 81.9525 28.4816 82.3274C28.1067 82.7024 27.5981 82.913 27.0678 82.913C26.8053 82.913 26.5453 82.8613 26.3027 82.7608C26.0601 82.6603 25.8397 82.5131 25.654 82.3274C25.4684 82.1417 25.3211 81.9213 25.2206 81.6788C25.1201 81.4362 25.0684 81.1762 25.0684 80.9136Z" fill="#6D6D6D"/>
<path id="Vector_5" d="M113.381 93.2506L113.756 93.3093C115.083 93.5171 115.99 94.7613 115.782 96.0882L115.535 97.6667C115.327 98.9937 114.083 99.901 112.756 99.6932L112.381 99.6344C111.054 99.4266 110.147 98.1825 110.355 96.8555L110.602 95.277C110.81 93.95 112.054 93.0428 113.381 93.2506Z" fill="#6D6D6D"/>
<path id="Vector_6" d="M18.9773 102.937C17.5147 102.937 16.329 101.751 16.329 100.289C16.329 98.8263 17.5147 97.6406 18.9773 97.6406C20.4398 97.6406 21.6255 98.8263 21.6255 100.289C21.6255 101.751 20.4398 102.937 18.9773 102.937Z" fill="#6D6D6D"/>
<path id="Vector_7" d="M175.929 106.476C174.466 106.476 173.281 105.29 173.281 103.828C173.281 102.365 174.466 101.18 175.929 101.18C177.391 101.18 178.577 102.365 178.577 103.828C178.577 105.29 177.391 106.476 175.929 106.476Z" fill="#6D6D6D"/>
<path id="Vector_8" d="M117.067 135.409C123.629 128.4 128.18 120.188 130.719 110.772C131.769 106.879 126.552 105.559 125.52 109.584C125.228 110.717 124.897 111.809 124.527 112.859C120.912 123.165 114.649 132.606 105.155 137.744C104.999 137.826 104.834 137.851 104.66 137.819C100.538 137.013 96.5201 136.009 92.6066 134.809C92.5909 134.804 92.5769 134.794 92.5663 134.781C92.5556 134.768 92.549 134.753 92.5471 134.737C92.5452 134.721 92.5481 134.705 92.5556 134.691C92.5631 134.677 92.5747 134.666 92.589 134.659C101.787 129.636 108.046 120.548 112 110.644C112.998 108.141 110.098 105.93 107.988 107.492C107.562 107.807 107.164 108.397 106.797 109.262C102.436 119.515 96.1508 128.506 85.249 132.059C85.0989 132.109 84.9518 132.106 84.8076 132.05C74.3589 128.001 65.1284 122.35 57.1161 115.097C55.0858 113.261 53.5233 112.075 52.4287 111.54C48.1827 109.474 44.2501 110.216 40.1542 112.475C29.579 118.306 18.8581 123.593 8.81252 127.707C6.72336 128.563 4.76515 128.924 2.93788 128.788C1.60936 128.691 0.351456 129.442 0.0822144 130.766C-0.451843 133.383 1.86977 134.336 4.04573 134.182C6.4556 134.017 8.83606 133.452 11.1871 132.487C22.4597 127.848 32.7789 122.525 43.9368 116.523C45.7081 115.572 47.5118 115.408 49.3479 116.028C50.2954 116.352 51.5298 117.219 53.051 118.628C66.8085 131.37 84.7238 139.337 103.301 142.956C103.539 143.003 103.55 143.083 103.332 143.195C95.3372 147.232 86.9983 150.866 78.3151 154.097C78.1385 154.161 78.0223 154.105 77.9664 153.929C74.943 144.748 65.4933 139.898 56.2333 142.511C50.9428 144.002 45.6463 145.55 40.344 147.154C40.0409 147.245 40.013 147.191 40.2601 146.991C41.9138 145.646 43.6278 144.316 45.4021 143.001C47.3382 141.562 48.6035 140.305 49.1979 139.231C52.4111 133.436 48.1827 126.202 41.3238 126.679C40.188 126.758 38.8786 127.202 37.3956 128.012C32.5788 130.645 26.4835 133.189 19.1097 135.643C12.9717 137.688 7.42073 139.364 2.45679 140.67C1.62701 140.888 1.01056 141.239 0.607452 141.725C-0.659286 143.252 0.152832 145.653 2.13458 145.984C2.64363 146.07 3.23654 146.018 3.9133 145.83C12.7201 143.376 20.3764 140.947 26.8822 138.543C31.7697 136.733 36.301 134.688 40.4764 132.408C42.1713 131.476 44.0383 132.16 44.7577 133.913C45.5742 135.917 44.3296 137.144 42.8289 138.269C37.506 142.25 32.264 146.471 27.1029 150.932C26.485 151.465 26.0642 152 25.8406 152.539C25.024 154.529 27.0234 156.546 29.0979 155.946C38.2166 153.315 47.4103 150.623 56.6791 147.869C58.5505 147.31 60.1409 147.052 61.4503 147.096C66.8218 147.273 71.4209 150.601 72.948 155.774C72.9951 155.927 72.9421 156.03 72.7891 156.083C53.029 162.889 32.5626 167.611 11.8491 170.524C8.20784 171.036 8.72424 176.377 12.8466 175.781C47.5207 170.785 81.8504 161.154 112.658 144.254C123.016 138.572 132.327 132.231 140.592 125.231C142.49 123.624 145.072 123.104 147.359 124.128C148.132 124.475 149.093 125.184 150.241 126.255C166.627 141.544 186.027 151.879 208.44 157.261C209.976 157.629 211.81 157.998 213.944 158.369C214.994 158.554 215.815 158.521 216.407 158.268C218.834 157.23 218.335 153.695 215.656 153.24C208.627 152.049 201.475 150.064 194.201 147.286C178.294 141.216 164.578 132.659 153.052 121.616C148.422 117.18 141.713 117.229 136.885 121.351C130.7 126.627 124.123 131.35 117.156 135.519C116.864 135.693 116.835 135.656 117.067 135.409Z" fill="#6D6D6D"/>
<path id="Vector_9" d="M138.072 142.295C140.16 140.666 143.051 140.706 145.245 141.968C147.231 143.113 148.821 144.244 150.016 145.362C152.779 147.944 152.399 152.627 149.367 155.046C141.367 161.437 133.081 166.675 124.509 170.759C121.274 172.304 123.516 177.176 126.932 175.517C136.283 170.982 144.956 165.462 152.951 158.957C158.786 154.207 158.442 145.301 152.805 140.719C148.427 137.162 143.868 134.474 138.108 136.345C136.878 136.742 135.436 137.577 133.782 138.848C124.422 146.036 113.282 152.28 100.362 157.58C86.9853 163.067 73.5118 167.29 59.9411 170.247C58.7759 170.503 57.9505 170.825 57.465 171.213C55.3685 172.891 57.0104 176.408 59.769 175.786C71.4123 173.161 82.3053 170.014 92.448 166.345C108.907 160.391 124.544 152.83 138.072 142.295Z" fill="#6D6D6D"/>
</g>
</svg>
